<svg width="131" height="25" fill="none" xmlns="http://www.w3.org/2000/svg"><path d="M40.172 19v-.756h.061c.194 0 .367-.012.519-.035a.967.967 0 00.395-.158.828.828 0 00.264-.343c.065-.152.103-.352.114-.598V7.495L37.403 19h-.975L32.253 7.53v9.422c0 .281.03.507.088.677a.86.86 0 00.255.395.973.973 0 00.413.176c.164.03.346.044.545.044h.052V19H29.45v-.756h.229c.199 0 .386-.012.562-.035.182-.03.34-.085.475-.167a.83.83 0 00.316-.36c.082-.164.123-.378.123-.642V8.128c0-.264-.04-.475-.123-.633a.88.88 0 00-.316-.378 1.117 1.117 0 00-.475-.167 3.42 3.42 0 00-.562-.044h-.229V6.15h4.105l3.726 10.292L40.972 6.15h3.99v.756h-.229c-.205 0-.398.015-.58.044-.175.03-.33.091-.465.185a.872.872 0 00-.317.386c-.076.17-.114.396-.114.677v8.754c0 .281.038.507.114.677a.93.93 0 00.316.395 1.2 1.2 0 00.466.176c.182.03.375.044.58.044h.229V19h-4.79zm15.653-9.65v.755h-.053c-.175 0-.328.021-.457.062a.793.793 0 00-.342.21c-.1.106-.194.25-.282.432a7.938 7.938 0 00-.29.703l-2.733 7.558c-.211.58-.41 1.09-.598 1.53-.187.44-.383.814-.589 1.125-.205.316-.43.577-.676.782a2.91 2.91 0 01-.827.492c-.31.123-.668.208-1.072.255-.404.047-.873.07-1.406.07h-.158v-.852c.61 0 1.134-.091 1.573-.273a3.44 3.44 0 001.134-.747 4.03 4.03 0 00.8-1.125c.216-.428.398-.893.545-1.397l-3.331-7.867a3.222 3.222 0 00-.238-.457 1.099 1.099 0 00-.264-.298.803.803 0 00-.334-.159 1.964 1.964 0 00-.448-.043h-.052V9.35h4.324v.755h-.053c-.363 0-.636.07-.817.211-.176.141-.264.36-.264.66 0 .1.009.202.026.307.024.1.062.217.115.352l1.318 3.208c.082.205.167.43.255.677.094.24.179.48.255.72.082.235.155.457.22.668.064.211.108.393.131.545h.053c.065-.264.152-.583.264-.958.117-.38.252-.788.404-1.222l1.204-3.506c.053-.147.09-.287.114-.422.03-.135.044-.252.044-.352 0-.31-.1-.536-.298-.677-.194-.14-.49-.21-.888-.21h-.053V9.35h3.744zm8.323 5.352l-.685 1.89c-.053.14-.094.281-.123.422-.03.134-.044.252-.044.351 0 .305.097.528.29.668.2.14.5.211.905.211h.413V19H60.51v-.756h.343c.175 0 .325-.017.448-.053a.811.811 0 00.334-.22c.1-.105.193-.248.281-.43.094-.182.196-.416.308-.703l3.99-10.688h1.406l4.07 11.136c.07.188.14.343.21.466.077.123.164.223.264.299.1.07.214.12.343.15.129.029.281.043.457.043h.237V19h-4.948v-.756h.413c.72 0 1.081-.287 1.081-.861 0-.1-.015-.202-.044-.308a3.289 3.289 0 00-.105-.36l-.721-2.013h-4.729zm3.288-4.052c-.188-.533-.36-1.03-.519-1.494-.152-.469-.278-.92-.378-1.353-.041.217-.09.427-.15.633a16.986 16.986 0 01-.395 1.283 66.93 66.93 0 01-.281.764l-1.222 3.314h4.06l-1.115-3.147zm10.494 8.526a4.834 4.834 0 01-1.653-.273 3.287 3.287 0 01-1.3-.879c-.364-.398-.648-.908-.853-1.529-.2-.627-.299-1.383-.299-2.268 0-.96.1-1.763.299-2.408.205-.65.486-1.171.844-1.564a3.04 3.04 0 011.274-.835 5 5 0 011.591-.246c.375 0 .747.038 1.116.114.375.07.712.182 1.011.334.299.152.542.346.73.58.187.229.28.498.28.809 0 .416-.134.709-.404.879-.27.17-.67.255-1.204.255 0-.282-.023-.548-.07-.8a1.881 1.881 0 00-.246-.66 1.145 1.145 0 00-.466-.448c-.193-.111-.442-.167-.747-.167-.346 0-.66.065-.94.194-.276.129-.513.351-.712.668-.2.316-.352.74-.457 1.274-.106.533-.159 1.201-.159 2.004 0 1.277.211 2.23.633 2.856.428.627 1.125.94 2.092.94.557 0 1.043-.116 1.459-.35.416-.235.727-.537.932-.906a.84.84 0 01.22.281.935.935 0 01.087.422c0 .205-.064.41-.193.615-.129.205-.322.39-.58.554a3.237 3.237 0 01-.95.396c-.38.105-.826.158-1.335.158zm8.86 0c-.599 0-1.15-.091-1.653-.273a3.288 3.288 0 01-1.301-.879c-.363-.398-.647-.908-.853-1.529-.199-.627-.298-1.383-.298-2.268 0-.96.1-1.763.298-2.408.206-.65.487-1.171.844-1.564a3.04 3.04 0 011.275-.835 5 5 0 011.59-.246c.375 0 .748.038 1.117.114.375.07.712.182 1.01.334.3.152.542.346.73.58.187.229.281.498.281.809 0 .416-.135.709-.404.879-.27.17-.671.255-1.204.255 0-.282-.024-.548-.07-.8a1.881 1.881 0 00-.247-.66 1.145 1.145 0 00-.466-.448c-.193-.111-.442-.167-.747-.167a2.23 2.23 0 00-.94.194c-.275.129-.513.351-.712.668-.2.316-.352.74-.457 1.274-.105.533-.158 1.201-.158 2.004 0 1.277.21 2.23.633 2.856.427.627 1.125.94 2.091.94.557 0 1.043-.116 1.46-.35.415-.235.726-.537.931-.906.088.07.161.164.22.281a.935.935 0 01.088.422c0 .205-.065.41-.194.615-.129.205-.322.39-.58.554a3.237 3.237 0 01-.949.396c-.38.105-.826.158-1.336.158zm13.156-5.019c0 1.694-.36 2.953-1.08 3.78-.716.826-1.764 1.239-3.147 1.239-.65 0-1.234-.103-1.75-.308a3.387 3.387 0 01-1.318-.931c-.357-.417-.632-.938-.826-1.565-.187-.633-.281-1.371-.281-2.215 0-1.681.354-2.932 1.063-3.753.715-.82 1.77-1.23 3.165-1.23.65 0 1.233.102 1.748.307.516.2.953.507 1.31.923.363.41.639.929.826 1.556.194.621.29 1.353.29 2.197zm-6.662 0c0 .668.044 1.257.132 1.767.088.51.228.937.422 1.283.2.34.454.598.765.773.316.176.7.264 1.15.264.452 0 .833-.088 1.144-.264a2 2 0 00.755-.773c.194-.346.331-.773.413-1.283.088-.51.132-1.099.132-1.767 0-.668-.044-1.254-.132-1.758-.087-.503-.228-.922-.421-1.256a1.92 1.92 0 00-.765-.765c-.31-.17-.692-.255-1.143-.255-.45 0-.832.085-1.142.255-.31.17-.563.425-.756.765-.194.334-.334.752-.422 1.256a10.33 10.33 0 00-.132 1.758zm17.139 2.883c0 .264.038.478.114.642a.892.892 0 00.325.36c.135.082.29.138.466.167.182.023.372.035.571.035h.053V19h-2.856l-.238-1.459h-.087a3.21 3.21 0 01-.607.826 2.78 2.78 0 01-.694.501 2.75 2.75 0 01-.774.238c-.269.046-.55.07-.843.07-.475 0-.897-.068-1.266-.202a2.241 2.241 0 01-.932-.633c-.252-.287-.445-.654-.58-1.099-.129-.445-.193-.975-.193-1.59v-4.316c0-.264-.041-.475-.123-.633a.879.879 0 00-.317-.378 1.207 1.207 0 00-.474-.176 3.432 3.432 0 00-.563-.043h-.052V9.35h3.225v6.213c0 .393.029.742.088 1.046.064.305.167.563.308.774.146.21.339.372.58.483.246.106.55.158.914.158.398 0 .738-.07 1.019-.21.287-.141.522-.337.703-.59.188-.257.326-.565.414-.922a5.02 5.02 0 00.131-1.187v-3.709c0-.281-.041-.507-.123-.677a.863.863 0 00-.316-.395 1.067 1.067 0 00-.466-.185 3.48 3.48 0 00-.571-.043h-.053V9.35h3.217v7.69zm7.286 1.204V19h-4.843v-.756h.15c.205 0 .395-.014.571-.044.182-.03.337-.088.466-.176a.929.929 0 00.316-.395c.082-.17.123-.396.123-.677v-5.616c0-.264-.041-.475-.123-.633a.877.877 0 00-.316-.378 1.212 1.212 0 00-.475-.176 3.42 3.42 0 00-.562-.043h-.053V9.35h2.909l.237 1.459h.088c.188-.334.384-.607.589-.818.211-.217.431-.384.659-.5.235-.124.481-.206.739-.247.263-.047.539-.07.826-.07.474 0 .896.07 1.265.21.375.136.692.346.95.634.263.28.463.644.597 1.09.141.445.211.975.211 1.59v4.254c0 .281.032.507.097.677.07.17.167.302.29.395.123.088.269.147.439.176.17.03.355.044.554.044h.062V19h-3.138v-6.214a4.64 4.64 0 00-.106-1.046 2.031 2.031 0 00-.342-.773 1.401 1.401 0 00-.607-.475c-.252-.111-.559-.167-.923-.167-.41 0-.755.08-1.037.238a1.898 1.898 0 00-.668.641c-.17.27-.293.58-.369.932a5.65 5.65 0 00-.105 1.107v3.797c0 .264.038.478.114.642.082.158.19.278.325.36.135.082.29.138.466.167.182.023.372.035.571.035h.053zm11.048-.017c.217 0 .416-.012.597-.036a9.65 9.65 0 00.554-.087v.79c-.076.036-.176.07-.299.106a3.424 3.424 0 01-.404.088c-.141.03-.29.05-.448.061a4.065 4.065 0 01-.448.027c-.457 0-.85-.05-1.178-.15a1.79 1.79 0 01-.809-.465c-.211-.217-.369-.504-.474-.862-.1-.357-.15-.794-.15-1.31v-6.011h-1.371v-.72c.217 0 .454-.045.712-.133.264-.088.495-.234.694-.44.205-.222.37-.485.493-.79.128-.31.24-.697.334-1.16h.826V9.35h2.355v1.028h-2.355v6.064c0 .616.123 1.067.369 1.354.252.287.586.43 1.002.43z" fill="#2C2C2C"/><path fill-rule="evenodd" clip-rule="evenodd" d="M4.473 7.436c0 2.9 2.172 5.255 4.845 5.255 2.673 0 4.846-2.355 4.846-5.255 0-2.809-2.082-4.936-4.846-4.936-2.763 0-4.845 2.127-4.845 4.936zm1.463.01c0-2.019 1.419-3.482 3.382-3.482 1.928 0 3.382 1.49 3.382 3.481 0 2.1-1.518 3.8-3.382 3.8-1.863 0-3.382-1.709-3.382-3.8zM0 21.772c0 .4.327.727.727.727H17.91a.73.73 0 00.727-.727c0-5.164-3.309-8.01-9.318-8.01C3.31 13.764 0 16.61 0 21.774zm17.154-.737H1.491c.282-3.854 2.909-5.818 7.827-5.818s7.546 1.955 7.836 5.818z" fill="#2C2C2C"/></svg>